<mxfile host="127.0.0.1" modified="2024-10-30T07:27:32.566Z" agent="Mozilla/5.0 (X11; Linux x86_64) AppleWebKit/537.36 (KHTML, like Gecko) SiYuan/3.1.10 Chrome/128.0.6613.120 Electron/32.1.0 Safari/537.36" etag="-ZVF_6ouPvnsfvs-557y" version="@DRAWIO-VERSION@">
  <diagram name="第 1 页" id="wlCmovf6M4y3ghpHGSrA">
    <mxGraphModel dx="1728" dy="1122" grid="1" gridSize="10" guides="1" tooltips="1" connect="1" arrows="1" fold="1" page="1" pageScale="1" pageWidth="827" pageHeight="1169" math="0" shadow="0">
      <root>
        <mxCell id="0" />
        <mxCell id="1" parent="0" />
        <mxCell id="dmKb26-EE7EQQu3DMDBA-1" value="struct QemuOptsList" style="swimlane;fontStyle=1;align=center;verticalAlign=top;childLayout=stackLayout;horizontal=1;startSize=26;horizontalStack=0;resizeParent=1;resizeParentMax=0;resizeLast=0;collapsible=1;marginBottom=0;whiteSpace=wrap;html=1;fillColor=#ffe6cc;strokeColor=#d79b00;" parent="1" vertex="1">
          <mxGeometry x="290" y="50" width="200" height="188" as="geometry">
            <mxRectangle x="70" y="60" width="160" height="30" as="alternateBounds" />
          </mxGeometry>
        </mxCell>
        <mxCell id="dmKb26-EE7EQQu3DMDBA-2" value="const char *name" style="text;strokeColor=none;fillColor=none;align=left;verticalAlign=top;spacingLeft=4;spacingRight=4;overflow=hidden;rotatable=0;points=[[0,0.5],[1,0.5]];portConstraint=eastwest;whiteSpace=wrap;html=1;" parent="dmKb26-EE7EQQu3DMDBA-1" vertex="1">
          <mxGeometry y="26" width="200" height="26" as="geometry" />
        </mxCell>
        <mxCell id="dmKb26-EE7EQQu3DMDBA-3" value="" style="line;strokeWidth=1;fillColor=none;align=left;verticalAlign=middle;spacingTop=-1;spacingLeft=3;spacingRight=3;rotatable=0;labelPosition=right;points=[];portConstraint=eastwest;strokeColor=inherit;" parent="dmKb26-EE7EQQu3DMDBA-1" vertex="1">
          <mxGeometry y="52" width="200" height="8" as="geometry" />
        </mxCell>
        <mxCell id="dmKb26-EE7EQQu3DMDBA-4" value="const char *implied_opt_name" style="text;strokeColor=none;fillColor=none;align=left;verticalAlign=top;spacingLeft=4;spacingRight=4;overflow=hidden;rotatable=0;points=[[0,0.5],[1,0.5]];portConstraint=eastwest;whiteSpace=wrap;html=1;" parent="dmKb26-EE7EQQu3DMDBA-1" vertex="1">
          <mxGeometry y="60" width="200" height="26" as="geometry" />
        </mxCell>
        <mxCell id="dmKb26-EE7EQQu3DMDBA-11" style="line;strokeWidth=1;fillColor=none;align=left;verticalAlign=middle;spacingTop=-1;spacingLeft=3;spacingRight=3;rotatable=0;labelPosition=right;points=[];portConstraint=eastwest;strokeColor=inherit;" parent="dmKb26-EE7EQQu3DMDBA-1" vertex="1">
          <mxGeometry y="86" width="200" height="8" as="geometry" />
        </mxCell>
        <mxCell id="dmKb26-EE7EQQu3DMDBA-12" value="&lt;div style=&quot;background-color: rgb(255, 255, 255); font-family: &amp;quot;Droid Sans Mono&amp;quot;, &amp;quot;monospace&amp;quot;, monospace; line-height: 19px;&quot;&gt;&lt;font style=&quot;font-size: 12px;&quot;&gt;bool merge_lists&lt;/font&gt;&lt;/div&gt;" style="text;strokeColor=none;fillColor=none;align=left;verticalAlign=top;spacingLeft=4;spacingRight=4;overflow=hidden;rotatable=0;points=[[0,0.5],[1,0.5]];portConstraint=eastwest;whiteSpace=wrap;html=1;" parent="dmKb26-EE7EQQu3DMDBA-1" vertex="1">
          <mxGeometry y="94" width="200" height="26" as="geometry" />
        </mxCell>
        <mxCell id="dmKb26-EE7EQQu3DMDBA-10" style="line;strokeWidth=1;fillColor=none;align=left;verticalAlign=middle;spacingTop=-1;spacingLeft=3;spacingRight=3;rotatable=0;labelPosition=right;points=[];portConstraint=eastwest;strokeColor=inherit;" parent="dmKb26-EE7EQQu3DMDBA-1" vertex="1">
          <mxGeometry y="120" width="200" height="8" as="geometry" />
        </mxCell>
        <mxCell id="dmKb26-EE7EQQu3DMDBA-13" value="QTAILQ_HEAD(, QemuOpts) head" style="text;strokeColor=none;fillColor=none;align=left;verticalAlign=top;spacingLeft=4;spacingRight=4;overflow=hidden;rotatable=0;points=[[0,0.5],[1,0.5]];portConstraint=eastwest;whiteSpace=wrap;html=1;" parent="dmKb26-EE7EQQu3DMDBA-1" vertex="1">
          <mxGeometry y="128" width="200" height="26" as="geometry" />
        </mxCell>
        <mxCell id="dmKb26-EE7EQQu3DMDBA-15" style="line;strokeWidth=1;fillColor=none;align=left;verticalAlign=middle;spacingTop=-1;spacingLeft=3;spacingRight=3;rotatable=0;labelPosition=right;points=[];portConstraint=eastwest;strokeColor=inherit;" parent="dmKb26-EE7EQQu3DMDBA-1" vertex="1">
          <mxGeometry y="154" width="200" height="8" as="geometry" />
        </mxCell>
        <mxCell id="dmKb26-EE7EQQu3DMDBA-14" value="QemuOptDesc desc[]" style="text;strokeColor=none;fillColor=none;align=left;verticalAlign=top;spacingLeft=4;spacingRight=4;overflow=hidden;rotatable=0;points=[[0,0.5],[1,0.5]];portConstraint=eastwest;whiteSpace=wrap;html=1;" parent="dmKb26-EE7EQQu3DMDBA-1" vertex="1">
          <mxGeometry y="162" width="200" height="26" as="geometry" />
        </mxCell>
        <mxCell id="dmKb26-EE7EQQu3DMDBA-16" value="struct QemuOpt" style="swimlane;fontStyle=1;align=center;verticalAlign=top;childLayout=stackLayout;horizontal=1;startSize=26;horizontalStack=0;resizeParent=1;resizeParentMax=0;resizeLast=0;collapsible=1;marginBottom=0;whiteSpace=wrap;html=1;fillColor=#ffe6cc;strokeColor=#d79b00;" parent="1" vertex="1">
          <mxGeometry x="875" y="380" width="250" height="332" as="geometry">
            <mxRectangle x="70" y="60" width="160" height="30" as="alternateBounds" />
          </mxGeometry>
        </mxCell>
        <mxCell id="dmKb26-EE7EQQu3DMDBA-17" value="char *name" style="text;strokeColor=none;fillColor=none;align=left;verticalAlign=top;spacingLeft=4;spacingRight=4;overflow=hidden;rotatable=0;points=[[0,0.5],[1,0.5]];portConstraint=eastwest;whiteSpace=wrap;html=1;" parent="dmKb26-EE7EQQu3DMDBA-16" vertex="1">
          <mxGeometry y="26" width="250" height="26" as="geometry" />
        </mxCell>
        <mxCell id="dmKb26-EE7EQQu3DMDBA-18" value="" style="line;strokeWidth=1;fillColor=none;align=left;verticalAlign=middle;spacingTop=-1;spacingLeft=3;spacingRight=3;rotatable=0;labelPosition=right;points=[];portConstraint=eastwest;strokeColor=inherit;" parent="dmKb26-EE7EQQu3DMDBA-16" vertex="1">
          <mxGeometry y="52" width="250" height="8" as="geometry" />
        </mxCell>
        <mxCell id="dmKb26-EE7EQQu3DMDBA-19" value="char *str" style="text;strokeColor=none;fillColor=none;align=left;verticalAlign=top;spacingLeft=4;spacingRight=4;overflow=hidden;rotatable=0;points=[[0,0.5],[1,0.5]];portConstraint=eastwest;whiteSpace=wrap;html=1;" parent="dmKb26-EE7EQQu3DMDBA-16" vertex="1">
          <mxGeometry y="60" width="250" height="26" as="geometry" />
        </mxCell>
        <mxCell id="dmKb26-EE7EQQu3DMDBA-20" style="line;strokeWidth=1;fillColor=none;align=left;verticalAlign=middle;spacingTop=-1;spacingLeft=3;spacingRight=3;rotatable=0;labelPosition=right;points=[];portConstraint=eastwest;strokeColor=inherit;" parent="dmKb26-EE7EQQu3DMDBA-16" vertex="1">
          <mxGeometry y="86" width="250" height="8" as="geometry" />
        </mxCell>
        <mxCell id="dmKb26-EE7EQQu3DMDBA-21" value="&lt;div style=&quot;background-color: rgb(255, 255, 255); font-family: &amp;quot;Droid Sans Mono&amp;quot;, &amp;quot;monospace&amp;quot;, monospace; line-height: 19px;&quot;&gt;&lt;font style=&quot;font-size: 12px;&quot;&gt;const QemuOptDesc *desc&lt;/font&gt;&lt;/div&gt;" style="text;strokeColor=none;fillColor=none;align=left;verticalAlign=top;spacingLeft=4;spacingRight=4;overflow=hidden;rotatable=0;points=[[0,0.5],[1,0.5]];portConstraint=eastwest;whiteSpace=wrap;html=1;" parent="dmKb26-EE7EQQu3DMDBA-16" vertex="1">
          <mxGeometry y="94" width="250" height="26" as="geometry" />
        </mxCell>
        <mxCell id="dmKb26-EE7EQQu3DMDBA-22" style="line;strokeWidth=1;fillColor=none;align=left;verticalAlign=middle;spacingTop=-1;spacingLeft=3;spacingRight=3;rotatable=0;labelPosition=right;points=[];portConstraint=eastwest;strokeColor=inherit;" parent="dmKb26-EE7EQQu3DMDBA-16" vertex="1">
          <mxGeometry y="120" width="250" height="8" as="geometry" />
        </mxCell>
        <mxCell id="dmKb26-EE7EQQu3DMDBA-23" value="&lt;div&gt;union {&lt;span style=&quot;background-color: initial;&quot;&gt;&amp;nbsp;bool boolean;&lt;/span&gt;&lt;span style=&quot;background-color: initial;&quot;&gt;&amp;nbsp;uint64_t uint;&lt;/span&gt;&lt;span style=&quot;background-color: initial;&quot;&gt;&amp;nbsp;} value&lt;/span&gt;&lt;/div&gt;" style="text;strokeColor=none;fillColor=none;align=left;verticalAlign=top;spacingLeft=4;spacingRight=4;overflow=hidden;rotatable=0;points=[[0,0.5],[1,0.5]];portConstraint=eastwest;whiteSpace=wrap;html=1;" parent="dmKb26-EE7EQQu3DMDBA-16" vertex="1">
          <mxGeometry y="128" width="250" height="26" as="geometry" />
        </mxCell>
        <mxCell id="dmKb26-EE7EQQu3DMDBA-24" style="line;strokeWidth=1;fillColor=none;align=left;verticalAlign=middle;spacingTop=-1;spacingLeft=3;spacingRight=3;rotatable=0;labelPosition=right;points=[];portConstraint=eastwest;strokeColor=inherit;" parent="dmKb26-EE7EQQu3DMDBA-16" vertex="1">
          <mxGeometry y="154" width="250" height="8" as="geometry" />
        </mxCell>
        <mxCell id="dmKb26-EE7EQQu3DMDBA-71" value="QTAILQ_ENTRY(QemuOpt) next" style="swimlane;fontStyle=1;align=center;verticalAlign=top;childLayout=stackLayout;horizontal=1;startSize=26;horizontalStack=0;resizeParent=1;resizeParentMax=0;resizeLast=0;collapsible=1;marginBottom=0;whiteSpace=wrap;html=1;fillColor=#dae8fc;strokeColor=#6c8ebf;" parent="dmKb26-EE7EQQu3DMDBA-16" vertex="1">
          <mxGeometry y="162" width="250" height="136" as="geometry">
            <mxRectangle y="162" width="250" height="30" as="alternateBounds" />
          </mxGeometry>
        </mxCell>
        <mxCell id="dmKb26-EE7EQQu3DMDBA-72" value="struct QemuOpt *tqe_next" style="text;strokeColor=none;fillColor=none;align=left;verticalAlign=middle;spacingLeft=4;spacingRight=4;overflow=hidden;rotatable=0;points=[[0,0.5],[1,0.5]];portConstraint=eastwest;whiteSpace=wrap;html=1;" parent="dmKb26-EE7EQQu3DMDBA-71" vertex="1">
          <mxGeometry y="26" width="250" height="24" as="geometry" />
        </mxCell>
        <mxCell id="dmKb26-EE7EQQu3DMDBA-73" value="QTailQLink&amp;nbsp;tqe_circ" style="swimlane;fontStyle=1;align=center;verticalAlign=top;childLayout=stackLayout;horizontal=1;startSize=26;horizontalStack=0;resizeParent=1;resizeParentMax=0;resizeLast=0;collapsible=1;marginBottom=0;whiteSpace=wrap;html=1;fillColor=#e1d5e7;strokeColor=#9673a6;" parent="dmKb26-EE7EQQu3DMDBA-71" vertex="1">
          <mxGeometry y="50" width="250" height="86" as="geometry">
            <mxRectangle y="50" width="250" height="30" as="alternateBounds" />
          </mxGeometry>
        </mxCell>
        <mxCell id="dmKb26-EE7EQQu3DMDBA-74" value="void *tql_next" style="text;strokeColor=none;fillColor=none;align=left;verticalAlign=top;spacingLeft=4;spacingRight=4;overflow=hidden;rotatable=0;points=[[0,0.5],[1,0.5]];portConstraint=eastwest;whiteSpace=wrap;html=1;" parent="dmKb26-EE7EQQu3DMDBA-73" vertex="1">
          <mxGeometry y="26" width="250" height="26" as="geometry" />
        </mxCell>
        <mxCell id="dmKb26-EE7EQQu3DMDBA-75" value="" style="line;strokeWidth=1;fillColor=none;align=left;verticalAlign=middle;spacingTop=-1;spacingLeft=3;spacingRight=3;rotatable=0;labelPosition=right;points=[];portConstraint=eastwest;strokeColor=inherit;" parent="dmKb26-EE7EQQu3DMDBA-73" vertex="1">
          <mxGeometry y="52" width="250" height="8" as="geometry" />
        </mxCell>
        <mxCell id="dmKb26-EE7EQQu3DMDBA-76" value="struct QTailQLink *tql_prev" style="text;strokeColor=none;fillColor=none;align=left;verticalAlign=top;spacingLeft=4;spacingRight=4;overflow=hidden;rotatable=0;points=[[0,0.5],[1,0.5]];portConstraint=eastwest;whiteSpace=wrap;html=1;" parent="dmKb26-EE7EQQu3DMDBA-73" vertex="1">
          <mxGeometry y="60" width="250" height="26" as="geometry" />
        </mxCell>
        <mxCell id="dmKb26-EE7EQQu3DMDBA-27" style="line;strokeWidth=1;fillColor=none;align=left;verticalAlign=middle;spacingTop=-1;spacingLeft=3;spacingRight=3;rotatable=0;labelPosition=right;points=[];portConstraint=eastwest;strokeColor=inherit;" parent="dmKb26-EE7EQQu3DMDBA-16" vertex="1">
          <mxGeometry y="298" width="250" height="8" as="geometry" />
        </mxCell>
        <mxCell id="dmKb26-EE7EQQu3DMDBA-25" value="QemuOpts&amp;nbsp; &amp;nbsp; &amp;nbsp;*opts" style="text;strokeColor=none;fillColor=none;align=left;verticalAlign=top;spacingLeft=4;spacingRight=4;overflow=hidden;rotatable=0;points=[[0,0.5],[1,0.5]];portConstraint=eastwest;whiteSpace=wrap;html=1;" parent="dmKb26-EE7EQQu3DMDBA-16" vertex="1">
          <mxGeometry y="306" width="250" height="26" as="geometry" />
        </mxCell>
        <mxCell id="dmKb26-EE7EQQu3DMDBA-28" value="struct QemuOpts" style="swimlane;fontStyle=1;align=center;verticalAlign=top;childLayout=stackLayout;horizontal=1;startSize=26;horizontalStack=0;resizeParent=1;resizeParentMax=0;resizeLast=0;collapsible=1;marginBottom=0;whiteSpace=wrap;html=1;fillColor=#ffe6cc;strokeColor=#d79b00;" parent="1" vertex="1">
          <mxGeometry x="290" y="380" width="210" height="188" as="geometry">
            <mxRectangle x="70" y="60" width="160" height="30" as="alternateBounds" />
          </mxGeometry>
        </mxCell>
        <mxCell id="dmKb26-EE7EQQu3DMDBA-29" value="char *id" style="text;strokeColor=none;fillColor=none;align=left;verticalAlign=top;spacingLeft=4;spacingRight=4;overflow=hidden;rotatable=0;points=[[0,0.5],[1,0.5]];portConstraint=eastwest;whiteSpace=wrap;html=1;" parent="dmKb26-EE7EQQu3DMDBA-28" vertex="1">
          <mxGeometry y="26" width="210" height="26" as="geometry" />
        </mxCell>
        <mxCell id="dmKb26-EE7EQQu3DMDBA-30" value="" style="line;strokeWidth=1;fillColor=none;align=left;verticalAlign=middle;spacingTop=-1;spacingLeft=3;spacingRight=3;rotatable=0;labelPosition=right;points=[];portConstraint=eastwest;strokeColor=inherit;" parent="dmKb26-EE7EQQu3DMDBA-28" vertex="1">
          <mxGeometry y="52" width="210" height="8" as="geometry" />
        </mxCell>
        <mxCell id="dmKb26-EE7EQQu3DMDBA-31" value="QemuOptsList *list" style="text;strokeColor=none;fillColor=none;align=left;verticalAlign=top;spacingLeft=4;spacingRight=4;overflow=hidden;rotatable=0;points=[[0,0.5],[1,0.5]];portConstraint=eastwest;whiteSpace=wrap;html=1;" parent="dmKb26-EE7EQQu3DMDBA-28" vertex="1">
          <mxGeometry y="60" width="210" height="26" as="geometry" />
        </mxCell>
        <mxCell id="dmKb26-EE7EQQu3DMDBA-32" style="line;strokeWidth=1;fillColor=none;align=left;verticalAlign=middle;spacingTop=-1;spacingLeft=3;spacingRight=3;rotatable=0;labelPosition=right;points=[];portConstraint=eastwest;strokeColor=inherit;" parent="dmKb26-EE7EQQu3DMDBA-28" vertex="1">
          <mxGeometry y="86" width="210" height="8" as="geometry" />
        </mxCell>
        <mxCell id="dmKb26-EE7EQQu3DMDBA-33" value="&lt;div style=&quot;background-color: rgb(255, 255, 255); font-family: &amp;quot;Droid Sans Mono&amp;quot;, &amp;quot;monospace&amp;quot;, monospace; line-height: 19px;&quot;&gt;&lt;font style=&quot;font-size: 12px;&quot;&gt;QemuOptsList *list&lt;/font&gt;&lt;/div&gt;" style="text;strokeColor=none;fillColor=none;align=left;verticalAlign=top;spacingLeft=4;spacingRight=4;overflow=hidden;rotatable=0;points=[[0,0.5],[1,0.5]];portConstraint=eastwest;whiteSpace=wrap;html=1;" parent="dmKb26-EE7EQQu3DMDBA-28" vertex="1">
          <mxGeometry y="94" width="210" height="26" as="geometry" />
        </mxCell>
        <mxCell id="dmKb26-EE7EQQu3DMDBA-34" style="line;strokeWidth=1;fillColor=none;align=left;verticalAlign=middle;spacingTop=-1;spacingLeft=3;spacingRight=3;rotatable=0;labelPosition=right;points=[];portConstraint=eastwest;strokeColor=inherit;" parent="dmKb26-EE7EQQu3DMDBA-28" vertex="1">
          <mxGeometry y="120" width="210" height="8" as="geometry" />
        </mxCell>
        <mxCell id="dmKb26-EE7EQQu3DMDBA-35" value="&lt;div style=&quot;background-color: rgb(255, 255, 255); line-height: 19px;&quot;&gt;&lt;font face=&quot;Droid Sans Mono, monospace, monospace&quot;&gt;QTAILQ_HEAD(, QemuOpt) head&lt;/font&gt;&lt;br&gt;&lt;/div&gt;" style="text;strokeColor=none;fillColor=none;align=left;verticalAlign=top;spacingLeft=4;spacingRight=4;overflow=hidden;rotatable=0;points=[[0,0.5],[1,0.5]];portConstraint=eastwest;whiteSpace=wrap;html=1;" parent="dmKb26-EE7EQQu3DMDBA-28" vertex="1">
          <mxGeometry y="128" width="210" height="26" as="geometry" />
        </mxCell>
        <mxCell id="dmKb26-EE7EQQu3DMDBA-36" style="line;strokeWidth=1;fillColor=none;align=left;verticalAlign=middle;spacingTop=-1;spacingLeft=3;spacingRight=3;rotatable=0;labelPosition=right;points=[];portConstraint=eastwest;strokeColor=inherit;" parent="dmKb26-EE7EQQu3DMDBA-28" vertex="1">
          <mxGeometry y="154" width="210" height="8" as="geometry" />
        </mxCell>
        <mxCell id="dmKb26-EE7EQQu3DMDBA-37" value="QTAILQ_ENTRY(QemuOpts) next" style="text;strokeColor=none;fillColor=none;align=left;verticalAlign=top;spacingLeft=4;spacingRight=4;overflow=hidden;rotatable=0;points=[[0,0.5],[1,0.5]];portConstraint=eastwest;whiteSpace=wrap;html=1;" parent="dmKb26-EE7EQQu3DMDBA-28" vertex="1">
          <mxGeometry y="162" width="210" height="26" as="geometry" />
        </mxCell>
        <mxCell id="dmKb26-EE7EQQu3DMDBA-38" value="QTAILQ_HEAD(, QemuOpt) head" style="swimlane;fontStyle=1;align=center;verticalAlign=top;childLayout=stackLayout;horizontal=1;startSize=26;horizontalStack=0;resizeParent=1;resizeParentMax=0;resizeLast=0;collapsible=1;marginBottom=0;whiteSpace=wrap;html=1;fillColor=#dae8fc;strokeColor=#6c8ebf;" parent="1" vertex="1">
          <mxGeometry x="580" y="380" width="240" height="136" as="geometry">
            <mxRectangle x="70" y="60" width="160" height="30" as="alternateBounds" />
          </mxGeometry>
        </mxCell>
        <mxCell id="dmKb26-EE7EQQu3DMDBA-39" value="struct QemuOpt *tqh_first" style="text;strokeColor=none;fillColor=none;align=left;verticalAlign=middle;spacingLeft=4;spacingRight=4;overflow=hidden;rotatable=0;points=[[0,0.5],[1,0.5]];portConstraint=eastwest;whiteSpace=wrap;html=1;" parent="dmKb26-EE7EQQu3DMDBA-38" vertex="1">
          <mxGeometry y="26" width="240" height="24" as="geometry" />
        </mxCell>
        <mxCell id="dmKb26-EE7EQQu3DMDBA-48" value="QTailQLink&amp;nbsp;tqh_circ" style="swimlane;fontStyle=1;align=center;verticalAlign=top;childLayout=stackLayout;horizontal=1;startSize=26;horizontalStack=0;resizeParent=1;resizeParentMax=0;resizeLast=0;collapsible=1;marginBottom=0;whiteSpace=wrap;html=1;fillColor=#e1d5e7;strokeColor=#9673a6;" parent="dmKb26-EE7EQQu3DMDBA-38" vertex="1">
          <mxGeometry y="50" width="240" height="86" as="geometry" />
        </mxCell>
        <mxCell id="dmKb26-EE7EQQu3DMDBA-49" value="void *tql_next" style="text;strokeColor=none;fillColor=none;align=left;verticalAlign=top;spacingLeft=4;spacingRight=4;overflow=hidden;rotatable=0;points=[[0,0.5],[1,0.5]];portConstraint=eastwest;whiteSpace=wrap;html=1;" parent="dmKb26-EE7EQQu3DMDBA-48" vertex="1">
          <mxGeometry y="26" width="240" height="26" as="geometry" />
        </mxCell>
        <mxCell id="dmKb26-EE7EQQu3DMDBA-50" value="" style="line;strokeWidth=1;fillColor=none;align=left;verticalAlign=middle;spacingTop=-1;spacingLeft=3;spacingRight=3;rotatable=0;labelPosition=right;points=[];portConstraint=eastwest;strokeColor=inherit;" parent="dmKb26-EE7EQQu3DMDBA-48" vertex="1">
          <mxGeometry y="52" width="240" height="8" as="geometry" />
        </mxCell>
        <mxCell id="dmKb26-EE7EQQu3DMDBA-51" value="struct QTailQLink *tql_prev" style="text;strokeColor=none;fillColor=none;align=left;verticalAlign=top;spacingLeft=4;spacingRight=4;overflow=hidden;rotatable=0;points=[[0,0.5],[1,0.5]];portConstraint=eastwest;whiteSpace=wrap;html=1;" parent="dmKb26-EE7EQQu3DMDBA-48" vertex="1">
          <mxGeometry y="60" width="240" height="26" as="geometry" />
        </mxCell>
        <mxCell id="dmKb26-EE7EQQu3DMDBA-53" style="edgeStyle=orthogonalEdgeStyle;rounded=0;orthogonalLoop=1;jettySize=auto;html=1;entryX=0.5;entryY=0;entryDx=0;entryDy=0;" parent="1" source="dmKb26-EE7EQQu3DMDBA-39" target="dmKb26-EE7EQQu3DMDBA-16" edge="1">
          <mxGeometry relative="1" as="geometry" />
        </mxCell>
        <mxCell id="dmKb26-EE7EQQu3DMDBA-54" style="edgeStyle=orthogonalEdgeStyle;rounded=0;orthogonalLoop=1;jettySize=auto;html=1;entryX=0.5;entryY=0;entryDx=0;entryDy=0;" parent="1" source="dmKb26-EE7EQQu3DMDBA-49" target="dmKb26-EE7EQQu3DMDBA-16" edge="1">
          <mxGeometry relative="1" as="geometry" />
        </mxCell>
        <mxCell id="dmKb26-EE7EQQu3DMDBA-77" value="struct QemuOpt" style="swimlane;fontStyle=1;align=center;verticalAlign=top;childLayout=stackLayout;horizontal=1;startSize=26;horizontalStack=0;resizeParent=1;resizeParentMax=0;resizeLast=0;collapsible=1;marginBottom=0;whiteSpace=wrap;html=1;fillColor=#ffe6cc;strokeColor=#d79b00;" parent="1" vertex="1">
          <mxGeometry x="1180" y="380" width="250" height="332" as="geometry">
            <mxRectangle x="70" y="60" width="160" height="30" as="alternateBounds" />
          </mxGeometry>
        </mxCell>
        <mxCell id="dmKb26-EE7EQQu3DMDBA-78" value="char *name" style="text;strokeColor=none;fillColor=none;align=left;verticalAlign=top;spacingLeft=4;spacingRight=4;overflow=hidden;rotatable=0;points=[[0,0.5],[1,0.5]];portConstraint=eastwest;whiteSpace=wrap;html=1;" parent="dmKb26-EE7EQQu3DMDBA-77" vertex="1">
          <mxGeometry y="26" width="250" height="26" as="geometry" />
        </mxCell>
        <mxCell id="dmKb26-EE7EQQu3DMDBA-79" value="" style="line;strokeWidth=1;fillColor=none;align=left;verticalAlign=middle;spacingTop=-1;spacingLeft=3;spacingRight=3;rotatable=0;labelPosition=right;points=[];portConstraint=eastwest;strokeColor=inherit;" parent="dmKb26-EE7EQQu3DMDBA-77" vertex="1">
          <mxGeometry y="52" width="250" height="8" as="geometry" />
        </mxCell>
        <mxCell id="dmKb26-EE7EQQu3DMDBA-80" value="char *str" style="text;strokeColor=none;fillColor=none;align=left;verticalAlign=top;spacingLeft=4;spacingRight=4;overflow=hidden;rotatable=0;points=[[0,0.5],[1,0.5]];portConstraint=eastwest;whiteSpace=wrap;html=1;" parent="dmKb26-EE7EQQu3DMDBA-77" vertex="1">
          <mxGeometry y="60" width="250" height="26" as="geometry" />
        </mxCell>
        <mxCell id="dmKb26-EE7EQQu3DMDBA-81" style="line;strokeWidth=1;fillColor=none;align=left;verticalAlign=middle;spacingTop=-1;spacingLeft=3;spacingRight=3;rotatable=0;labelPosition=right;points=[];portConstraint=eastwest;strokeColor=inherit;" parent="dmKb26-EE7EQQu3DMDBA-77" vertex="1">
          <mxGeometry y="86" width="250" height="8" as="geometry" />
        </mxCell>
        <mxCell id="dmKb26-EE7EQQu3DMDBA-82" value="&lt;div style=&quot;background-color: rgb(255, 255, 255); font-family: &amp;quot;Droid Sans Mono&amp;quot;, &amp;quot;monospace&amp;quot;, monospace; line-height: 19px;&quot;&gt;&lt;font style=&quot;font-size: 12px;&quot;&gt;const QemuOptDesc *desc&lt;/font&gt;&lt;/div&gt;" style="text;strokeColor=none;fillColor=none;align=left;verticalAlign=top;spacingLeft=4;spacingRight=4;overflow=hidden;rotatable=0;points=[[0,0.5],[1,0.5]];portConstraint=eastwest;whiteSpace=wrap;html=1;" parent="dmKb26-EE7EQQu3DMDBA-77" vertex="1">
          <mxGeometry y="94" width="250" height="26" as="geometry" />
        </mxCell>
        <mxCell id="dmKb26-EE7EQQu3DMDBA-83" style="line;strokeWidth=1;fillColor=none;align=left;verticalAlign=middle;spacingTop=-1;spacingLeft=3;spacingRight=3;rotatable=0;labelPosition=right;points=[];portConstraint=eastwest;strokeColor=inherit;" parent="dmKb26-EE7EQQu3DMDBA-77" vertex="1">
          <mxGeometry y="120" width="250" height="8" as="geometry" />
        </mxCell>
        <mxCell id="dmKb26-EE7EQQu3DMDBA-84" value="&lt;div&gt;union {&lt;span style=&quot;background-color: initial;&quot;&gt;&amp;nbsp;bool boolean;&lt;/span&gt;&lt;span style=&quot;background-color: initial;&quot;&gt;&amp;nbsp;uint64_t uint;&lt;/span&gt;&lt;span style=&quot;background-color: initial;&quot;&gt;&amp;nbsp;} value&lt;/span&gt;&lt;/div&gt;" style="text;strokeColor=none;fillColor=none;align=left;verticalAlign=top;spacingLeft=4;spacingRight=4;overflow=hidden;rotatable=0;points=[[0,0.5],[1,0.5]];portConstraint=eastwest;whiteSpace=wrap;html=1;" parent="dmKb26-EE7EQQu3DMDBA-77" vertex="1">
          <mxGeometry y="128" width="250" height="26" as="geometry" />
        </mxCell>
        <mxCell id="dmKb26-EE7EQQu3DMDBA-85" style="line;strokeWidth=1;fillColor=none;align=left;verticalAlign=middle;spacingTop=-1;spacingLeft=3;spacingRight=3;rotatable=0;labelPosition=right;points=[];portConstraint=eastwest;strokeColor=inherit;" parent="dmKb26-EE7EQQu3DMDBA-77" vertex="1">
          <mxGeometry y="154" width="250" height="8" as="geometry" />
        </mxCell>
        <mxCell id="dmKb26-EE7EQQu3DMDBA-86" value="QTAILQ_ENTRY(QemuOpt) next" style="swimlane;fontStyle=1;align=center;verticalAlign=top;childLayout=stackLayout;horizontal=1;startSize=26;horizontalStack=0;resizeParent=1;resizeParentMax=0;resizeLast=0;collapsible=1;marginBottom=0;whiteSpace=wrap;html=1;fillColor=#dae8fc;strokeColor=#6c8ebf;" parent="dmKb26-EE7EQQu3DMDBA-77" vertex="1">
          <mxGeometry y="162" width="250" height="136" as="geometry">
            <mxRectangle y="162" width="250" height="30" as="alternateBounds" />
          </mxGeometry>
        </mxCell>
        <mxCell id="dmKb26-EE7EQQu3DMDBA-87" value="struct QemuOpt *tqe_next" style="text;strokeColor=none;fillColor=none;align=left;verticalAlign=middle;spacingLeft=4;spacingRight=4;overflow=hidden;rotatable=0;points=[[0,0.5],[1,0.5]];portConstraint=eastwest;whiteSpace=wrap;html=1;" parent="dmKb26-EE7EQQu3DMDBA-86" vertex="1">
          <mxGeometry y="26" width="250" height="24" as="geometry" />
        </mxCell>
        <mxCell id="dmKb26-EE7EQQu3DMDBA-88" value="QTailQLink&amp;nbsp;tqe_circ" style="swimlane;fontStyle=1;align=center;verticalAlign=top;childLayout=stackLayout;horizontal=1;startSize=26;horizontalStack=0;resizeParent=1;resizeParentMax=0;resizeLast=0;collapsible=1;marginBottom=0;whiteSpace=wrap;html=1;fillColor=#e1d5e7;strokeColor=#9673a6;" parent="dmKb26-EE7EQQu3DMDBA-86" vertex="1">
          <mxGeometry y="50" width="250" height="86" as="geometry">
            <mxRectangle y="50" width="250" height="30" as="alternateBounds" />
          </mxGeometry>
        </mxCell>
        <mxCell id="dmKb26-EE7EQQu3DMDBA-89" value="void *tql_next" style="text;strokeColor=none;fillColor=none;align=left;verticalAlign=top;spacingLeft=4;spacingRight=4;overflow=hidden;rotatable=0;points=[[0,0.5],[1,0.5]];portConstraint=eastwest;whiteSpace=wrap;html=1;" parent="dmKb26-EE7EQQu3DMDBA-88" vertex="1">
          <mxGeometry y="26" width="250" height="26" as="geometry" />
        </mxCell>
        <mxCell id="dmKb26-EE7EQQu3DMDBA-90" value="" style="line;strokeWidth=1;fillColor=none;align=left;verticalAlign=middle;spacingTop=-1;spacingLeft=3;spacingRight=3;rotatable=0;labelPosition=right;points=[];portConstraint=eastwest;strokeColor=inherit;" parent="dmKb26-EE7EQQu3DMDBA-88" vertex="1">
          <mxGeometry y="52" width="250" height="8" as="geometry" />
        </mxCell>
        <mxCell id="dmKb26-EE7EQQu3DMDBA-91" value="struct QTailQLink *tql_prev" style="text;strokeColor=none;fillColor=none;align=left;verticalAlign=top;spacingLeft=4;spacingRight=4;overflow=hidden;rotatable=0;points=[[0,0.5],[1,0.5]];portConstraint=eastwest;whiteSpace=wrap;html=1;" parent="dmKb26-EE7EQQu3DMDBA-88" vertex="1">
          <mxGeometry y="60" width="250" height="26" as="geometry" />
        </mxCell>
        <mxCell id="dmKb26-EE7EQQu3DMDBA-92" style="line;strokeWidth=1;fillColor=none;align=left;verticalAlign=middle;spacingTop=-1;spacingLeft=3;spacingRight=3;rotatable=0;labelPosition=right;points=[];portConstraint=eastwest;strokeColor=inherit;" parent="dmKb26-EE7EQQu3DMDBA-77" vertex="1">
          <mxGeometry y="298" width="250" height="8" as="geometry" />
        </mxCell>
        <mxCell id="dmKb26-EE7EQQu3DMDBA-93" value="QemuOpts&amp;nbsp; &amp;nbsp; &amp;nbsp;*opts" style="text;strokeColor=none;fillColor=none;align=left;verticalAlign=top;spacingLeft=4;spacingRight=4;overflow=hidden;rotatable=0;points=[[0,0.5],[1,0.5]];portConstraint=eastwest;whiteSpace=wrap;html=1;" parent="dmKb26-EE7EQQu3DMDBA-77" vertex="1">
          <mxGeometry y="306" width="250" height="26" as="geometry" />
        </mxCell>
        <mxCell id="dmKb26-EE7EQQu3DMDBA-94" style="edgeStyle=orthogonalEdgeStyle;rounded=0;orthogonalLoop=1;jettySize=auto;html=1;entryX=0.5;entryY=0;entryDx=0;entryDy=0;" parent="1" source="dmKb26-EE7EQQu3DMDBA-72" target="dmKb26-EE7EQQu3DMDBA-77" edge="1">
          <mxGeometry relative="1" as="geometry">
            <mxPoint x="1210" y="550" as="targetPoint" />
          </mxGeometry>
        </mxCell>
        <mxCell id="dmKb26-EE7EQQu3DMDBA-95" style="edgeStyle=orthogonalEdgeStyle;rounded=0;orthogonalLoop=1;jettySize=auto;html=1;entryX=0.5;entryY=0;entryDx=0;entryDy=0;" parent="1" source="dmKb26-EE7EQQu3DMDBA-74" target="dmKb26-EE7EQQu3DMDBA-77" edge="1">
          <mxGeometry relative="1" as="geometry" />
        </mxCell>
        <mxCell id="dmKb26-EE7EQQu3DMDBA-96" style="edgeStyle=orthogonalEdgeStyle;rounded=0;orthogonalLoop=1;jettySize=auto;html=1;entryX=0.999;entryY=0.138;entryDx=0;entryDy=0;entryPerimeter=0;fillColor=#6a00ff;strokeColor=#3700CC;jumpStyle=arc;" parent="1" source="dmKb26-EE7EQQu3DMDBA-76" target="dmKb26-EE7EQQu3DMDBA-48" edge="1">
          <mxGeometry relative="1" as="geometry">
            <Array as="points">
              <mxPoint x="860" y="665" />
              <mxPoint x="860" y="442" />
            </Array>
          </mxGeometry>
        </mxCell>
        <mxCell id="dmKb26-EE7EQQu3DMDBA-97" style="edgeStyle=orthogonalEdgeStyle;rounded=0;orthogonalLoop=1;jettySize=auto;html=1;entryX=1.001;entryY=0.171;entryDx=0;entryDy=0;entryPerimeter=0;fillColor=#6a00ff;strokeColor=#3700CC;jumpStyle=arc;" parent="1" edge="1">
          <mxGeometry relative="1" as="geometry">
            <mxPoint x="1125" y="606.706" as="targetPoint" />
            <Array as="points">
              <mxPoint x="1160" y="660" />
              <mxPoint x="1160" y="607" />
            </Array>
            <mxPoint x="1180" y="660" as="sourcePoint" />
          </mxGeometry>
        </mxCell>
        <mxCell id="dmKb26-EE7EQQu3DMDBA-98" style="edgeStyle=orthogonalEdgeStyle;rounded=0;orthogonalLoop=1;jettySize=auto;html=1;entryX=0.5;entryY=0;entryDx=0;entryDy=0;" parent="1" source="dmKb26-EE7EQQu3DMDBA-35" target="dmKb26-EE7EQQu3DMDBA-38" edge="1">
          <mxGeometry relative="1" as="geometry" />
        </mxCell>
        <mxCell id="dmKb26-EE7EQQu3DMDBA-99" value="QTAILQ_HEAD(,&amp;nbsp;QemuOpts) head" style="swimlane;fontStyle=1;align=center;verticalAlign=top;childLayout=stackLayout;horizontal=1;startSize=26;horizontalStack=0;resizeParent=1;resizeParentMax=0;resizeLast=0;collapsible=1;marginBottom=0;whiteSpace=wrap;html=1;fillColor=#dae8fc;strokeColor=#6c8ebf;" parent="1" vertex="1">
          <mxGeometry x="580" y="50" width="240" height="136" as="geometry">
            <mxRectangle x="70" y="60" width="160" height="30" as="alternateBounds" />
          </mxGeometry>
        </mxCell>
        <mxCell id="dmKb26-EE7EQQu3DMDBA-100" value="struct QemuOpts&amp;nbsp;*tqh_first" style="text;strokeColor=none;fillColor=none;align=left;verticalAlign=middle;spacingLeft=4;spacingRight=4;overflow=hidden;rotatable=0;points=[[0,0.5],[1,0.5]];portConstraint=eastwest;whiteSpace=wrap;html=1;" parent="dmKb26-EE7EQQu3DMDBA-99" vertex="1">
          <mxGeometry y="26" width="240" height="24" as="geometry" />
        </mxCell>
        <mxCell id="dmKb26-EE7EQQu3DMDBA-101" value="QTailQLink&amp;nbsp;tqh_circ" style="swimlane;fontStyle=1;align=center;verticalAlign=top;childLayout=stackLayout;horizontal=1;startSize=26;horizontalStack=0;resizeParent=1;resizeParentMax=0;resizeLast=0;collapsible=1;marginBottom=0;whiteSpace=wrap;html=1;fillColor=#e1d5e7;strokeColor=#9673a6;" parent="dmKb26-EE7EQQu3DMDBA-99" vertex="1">
          <mxGeometry y="50" width="240" height="86" as="geometry" />
        </mxCell>
        <mxCell id="dmKb26-EE7EQQu3DMDBA-102" value="void *tql_next" style="text;strokeColor=none;fillColor=none;align=left;verticalAlign=top;spacingLeft=4;spacingRight=4;overflow=hidden;rotatable=0;points=[[0,0.5],[1,0.5]];portConstraint=eastwest;whiteSpace=wrap;html=1;" parent="dmKb26-EE7EQQu3DMDBA-101" vertex="1">
          <mxGeometry y="26" width="240" height="26" as="geometry" />
        </mxCell>
        <mxCell id="dmKb26-EE7EQQu3DMDBA-103" value="" style="line;strokeWidth=1;fillColor=none;align=left;verticalAlign=middle;spacingTop=-1;spacingLeft=3;spacingRight=3;rotatable=0;labelPosition=right;points=[];portConstraint=eastwest;strokeColor=inherit;" parent="dmKb26-EE7EQQu3DMDBA-101" vertex="1">
          <mxGeometry y="52" width="240" height="8" as="geometry" />
        </mxCell>
        <mxCell id="dmKb26-EE7EQQu3DMDBA-104" value="struct QTailQLink *tql_prev" style="text;strokeColor=none;fillColor=none;align=left;verticalAlign=top;spacingLeft=4;spacingRight=4;overflow=hidden;rotatable=0;points=[[0,0.5],[1,0.5]];portConstraint=eastwest;whiteSpace=wrap;html=1;" parent="dmKb26-EE7EQQu3DMDBA-101" vertex="1">
          <mxGeometry y="60" width="240" height="26" as="geometry" />
        </mxCell>
        <mxCell id="dmKb26-EE7EQQu3DMDBA-105" value="struct QemuOpts" style="swimlane;fontStyle=1;align=center;verticalAlign=top;childLayout=stackLayout;horizontal=1;startSize=26;horizontalStack=0;resizeParent=1;resizeParentMax=0;resizeLast=0;collapsible=1;marginBottom=0;whiteSpace=wrap;html=1;fillColor=#ffe6cc;strokeColor=#d79b00;" parent="1" vertex="1">
          <mxGeometry x="890" y="50" width="220" height="188" as="geometry">
            <mxRectangle x="70" y="60" width="160" height="30" as="alternateBounds" />
          </mxGeometry>
        </mxCell>
        <mxCell id="dmKb26-EE7EQQu3DMDBA-106" value="char *id" style="text;strokeColor=none;fillColor=none;align=left;verticalAlign=top;spacingLeft=4;spacingRight=4;overflow=hidden;rotatable=0;points=[[0,0.5],[1,0.5]];portConstraint=eastwest;whiteSpace=wrap;html=1;" parent="dmKb26-EE7EQQu3DMDBA-105" vertex="1">
          <mxGeometry y="26" width="220" height="26" as="geometry" />
        </mxCell>
        <mxCell id="dmKb26-EE7EQQu3DMDBA-107" value="" style="line;strokeWidth=1;fillColor=none;align=left;verticalAlign=middle;spacingTop=-1;spacingLeft=3;spacingRight=3;rotatable=0;labelPosition=right;points=[];portConstraint=eastwest;strokeColor=inherit;" parent="dmKb26-EE7EQQu3DMDBA-105" vertex="1">
          <mxGeometry y="52" width="220" height="8" as="geometry" />
        </mxCell>
        <mxCell id="dmKb26-EE7EQQu3DMDBA-108" value="QemuOptsList *list" style="text;strokeColor=none;fillColor=none;align=left;verticalAlign=top;spacingLeft=4;spacingRight=4;overflow=hidden;rotatable=0;points=[[0,0.5],[1,0.5]];portConstraint=eastwest;whiteSpace=wrap;html=1;" parent="dmKb26-EE7EQQu3DMDBA-105" vertex="1">
          <mxGeometry y="60" width="220" height="26" as="geometry" />
        </mxCell>
        <mxCell id="dmKb26-EE7EQQu3DMDBA-109" style="line;strokeWidth=1;fillColor=none;align=left;verticalAlign=middle;spacingTop=-1;spacingLeft=3;spacingRight=3;rotatable=0;labelPosition=right;points=[];portConstraint=eastwest;strokeColor=inherit;" parent="dmKb26-EE7EQQu3DMDBA-105" vertex="1">
          <mxGeometry y="86" width="220" height="8" as="geometry" />
        </mxCell>
        <mxCell id="dmKb26-EE7EQQu3DMDBA-110" value="&lt;div style=&quot;background-color: rgb(255, 255, 255); font-family: &amp;quot;Droid Sans Mono&amp;quot;, &amp;quot;monospace&amp;quot;, monospace; line-height: 19px;&quot;&gt;&lt;font style=&quot;font-size: 12px;&quot;&gt;QemuOptsList *list&lt;/font&gt;&lt;/div&gt;" style="text;strokeColor=none;fillColor=none;align=left;verticalAlign=top;spacingLeft=4;spacingRight=4;overflow=hidden;rotatable=0;points=[[0,0.5],[1,0.5]];portConstraint=eastwest;whiteSpace=wrap;html=1;" parent="dmKb26-EE7EQQu3DMDBA-105" vertex="1">
          <mxGeometry y="94" width="220" height="26" as="geometry" />
        </mxCell>
        <mxCell id="dmKb26-EE7EQQu3DMDBA-111" style="line;strokeWidth=1;fillColor=none;align=left;verticalAlign=middle;spacingTop=-1;spacingLeft=3;spacingRight=3;rotatable=0;labelPosition=right;points=[];portConstraint=eastwest;strokeColor=inherit;" parent="dmKb26-EE7EQQu3DMDBA-105" vertex="1">
          <mxGeometry y="120" width="220" height="8" as="geometry" />
        </mxCell>
        <mxCell id="dmKb26-EE7EQQu3DMDBA-112" value="&lt;div style=&quot;background-color: rgb(255, 255, 255); line-height: 19px;&quot;&gt;&lt;font face=&quot;Droid Sans Mono, monospace, monospace&quot;&gt;QTAILQ_HEAD(, QemuOpt) head&lt;/font&gt;&lt;br&gt;&lt;/div&gt;" style="text;strokeColor=none;fillColor=none;align=left;verticalAlign=top;spacingLeft=4;spacingRight=4;overflow=hidden;rotatable=0;points=[[0,0.5],[1,0.5]];portConstraint=eastwest;whiteSpace=wrap;html=1;" parent="dmKb26-EE7EQQu3DMDBA-105" vertex="1">
          <mxGeometry y="128" width="220" height="26" as="geometry" />
        </mxCell>
        <mxCell id="dmKb26-EE7EQQu3DMDBA-113" style="line;strokeWidth=1;fillColor=none;align=left;verticalAlign=middle;spacingTop=-1;spacingLeft=3;spacingRight=3;rotatable=0;labelPosition=right;points=[];portConstraint=eastwest;strokeColor=inherit;" parent="dmKb26-EE7EQQu3DMDBA-105" vertex="1">
          <mxGeometry y="154" width="220" height="8" as="geometry" />
        </mxCell>
        <mxCell id="dmKb26-EE7EQQu3DMDBA-114" value="QTAILQ_ENTRY(QemuOpts) next" style="text;strokeColor=none;fillColor=none;align=left;verticalAlign=top;spacingLeft=4;spacingRight=4;overflow=hidden;rotatable=0;points=[[0,0.5],[1,0.5]];portConstraint=eastwest;whiteSpace=wrap;html=1;" parent="dmKb26-EE7EQQu3DMDBA-105" vertex="1">
          <mxGeometry y="162" width="220" height="26" as="geometry" />
        </mxCell>
        <mxCell id="dmKb26-EE7EQQu3DMDBA-115" style="edgeStyle=orthogonalEdgeStyle;rounded=0;orthogonalLoop=1;jettySize=auto;html=1;entryX=0.5;entryY=0;entryDx=0;entryDy=0;" parent="1" source="dmKb26-EE7EQQu3DMDBA-13" target="dmKb26-EE7EQQu3DMDBA-99" edge="1">
          <mxGeometry relative="1" as="geometry" />
        </mxCell>
        <mxCell id="dmKb26-EE7EQQu3DMDBA-116" style="edgeStyle=orthogonalEdgeStyle;rounded=0;orthogonalLoop=1;jettySize=auto;html=1;entryX=0.5;entryY=0;entryDx=0;entryDy=0;" parent="1" source="dmKb26-EE7EQQu3DMDBA-102" target="dmKb26-EE7EQQu3DMDBA-105" edge="1">
          <mxGeometry relative="1" as="geometry" />
        </mxCell>
        <mxCell id="dmKb26-EE7EQQu3DMDBA-117" style="edgeStyle=orthogonalEdgeStyle;rounded=0;orthogonalLoop=1;jettySize=auto;html=1;entryX=0.5;entryY=0;entryDx=0;entryDy=0;" parent="1" source="dmKb26-EE7EQQu3DMDBA-100" target="dmKb26-EE7EQQu3DMDBA-105" edge="1">
          <mxGeometry relative="1" as="geometry" />
        </mxCell>
        <mxCell id="dmKb26-EE7EQQu3DMDBA-119" value="struct QemuOpts" style="swimlane;fontStyle=1;align=center;verticalAlign=top;childLayout=stackLayout;horizontal=1;startSize=26;horizontalStack=0;resizeParent=1;resizeParentMax=0;resizeLast=0;collapsible=1;marginBottom=0;whiteSpace=wrap;html=1;fillColor=#ffe6cc;strokeColor=#d79b00;" parent="1" vertex="1">
          <mxGeometry x="1190" y="50" width="220" height="188" as="geometry">
            <mxRectangle x="70" y="60" width="160" height="30" as="alternateBounds" />
          </mxGeometry>
        </mxCell>
        <mxCell id="dmKb26-EE7EQQu3DMDBA-120" value="char *id" style="text;strokeColor=none;fillColor=none;align=left;verticalAlign=top;spacingLeft=4;spacingRight=4;overflow=hidden;rotatable=0;points=[[0,0.5],[1,0.5]];portConstraint=eastwest;whiteSpace=wrap;html=1;" parent="dmKb26-EE7EQQu3DMDBA-119" vertex="1">
          <mxGeometry y="26" width="220" height="26" as="geometry" />
        </mxCell>
        <mxCell id="dmKb26-EE7EQQu3DMDBA-121" value="" style="line;strokeWidth=1;fillColor=none;align=left;verticalAlign=middle;spacingTop=-1;spacingLeft=3;spacingRight=3;rotatable=0;labelPosition=right;points=[];portConstraint=eastwest;strokeColor=inherit;" parent="dmKb26-EE7EQQu3DMDBA-119" vertex="1">
          <mxGeometry y="52" width="220" height="8" as="geometry" />
        </mxCell>
        <mxCell id="dmKb26-EE7EQQu3DMDBA-122" value="QemuOptsList *list" style="text;strokeColor=none;fillColor=none;align=left;verticalAlign=top;spacingLeft=4;spacingRight=4;overflow=hidden;rotatable=0;points=[[0,0.5],[1,0.5]];portConstraint=eastwest;whiteSpace=wrap;html=1;" parent="dmKb26-EE7EQQu3DMDBA-119" vertex="1">
          <mxGeometry y="60" width="220" height="26" as="geometry" />
        </mxCell>
        <mxCell id="dmKb26-EE7EQQu3DMDBA-123" style="line;strokeWidth=1;fillColor=none;align=left;verticalAlign=middle;spacingTop=-1;spacingLeft=3;spacingRight=3;rotatable=0;labelPosition=right;points=[];portConstraint=eastwest;strokeColor=inherit;" parent="dmKb26-EE7EQQu3DMDBA-119" vertex="1">
          <mxGeometry y="86" width="220" height="8" as="geometry" />
        </mxCell>
        <mxCell id="dmKb26-EE7EQQu3DMDBA-124" value="&lt;div style=&quot;background-color: rgb(255, 255, 255); font-family: &amp;quot;Droid Sans Mono&amp;quot;, &amp;quot;monospace&amp;quot;, monospace; line-height: 19px;&quot;&gt;&lt;font style=&quot;font-size: 12px;&quot;&gt;QemuOptsList *list&lt;/font&gt;&lt;/div&gt;" style="text;strokeColor=none;fillColor=none;align=left;verticalAlign=top;spacingLeft=4;spacingRight=4;overflow=hidden;rotatable=0;points=[[0,0.5],[1,0.5]];portConstraint=eastwest;whiteSpace=wrap;html=1;" parent="dmKb26-EE7EQQu3DMDBA-119" vertex="1">
          <mxGeometry y="94" width="220" height="26" as="geometry" />
        </mxCell>
        <mxCell id="dmKb26-EE7EQQu3DMDBA-125" style="line;strokeWidth=1;fillColor=none;align=left;verticalAlign=middle;spacingTop=-1;spacingLeft=3;spacingRight=3;rotatable=0;labelPosition=right;points=[];portConstraint=eastwest;strokeColor=inherit;" parent="dmKb26-EE7EQQu3DMDBA-119" vertex="1">
          <mxGeometry y="120" width="220" height="8" as="geometry" />
        </mxCell>
        <mxCell id="dmKb26-EE7EQQu3DMDBA-126" value="&lt;div style=&quot;background-color: rgb(255, 255, 255); line-height: 19px;&quot;&gt;&lt;font face=&quot;Droid Sans Mono, monospace, monospace&quot;&gt;QTAILQ_HEAD(, QemuOpt) head&lt;/font&gt;&lt;br&gt;&lt;/div&gt;" style="text;strokeColor=none;fillColor=none;align=left;verticalAlign=top;spacingLeft=4;spacingRight=4;overflow=hidden;rotatable=0;points=[[0,0.5],[1,0.5]];portConstraint=eastwest;whiteSpace=wrap;html=1;" parent="dmKb26-EE7EQQu3DMDBA-119" vertex="1">
          <mxGeometry y="128" width="220" height="26" as="geometry" />
        </mxCell>
        <mxCell id="dmKb26-EE7EQQu3DMDBA-127" style="line;strokeWidth=1;fillColor=none;align=left;verticalAlign=middle;spacingTop=-1;spacingLeft=3;spacingRight=3;rotatable=0;labelPosition=right;points=[];portConstraint=eastwest;strokeColor=inherit;" parent="dmKb26-EE7EQQu3DMDBA-119" vertex="1">
          <mxGeometry y="154" width="220" height="8" as="geometry" />
        </mxCell>
        <mxCell id="dmKb26-EE7EQQu3DMDBA-128" value="QTAILQ_ENTRY(QemuOpts) next" style="text;strokeColor=none;fillColor=none;align=left;verticalAlign=top;spacingLeft=4;spacingRight=4;overflow=hidden;rotatable=0;points=[[0,0.5],[1,0.5]];portConstraint=eastwest;whiteSpace=wrap;html=1;" parent="dmKb26-EE7EQQu3DMDBA-119" vertex="1">
          <mxGeometry y="162" width="220" height="26" as="geometry" />
        </mxCell>
        <mxCell id="dmKb26-EE7EQQu3DMDBA-129" style="edgeStyle=orthogonalEdgeStyle;rounded=0;orthogonalLoop=1;jettySize=auto;html=1;fillColor=#6a00ff;strokeColor=#3700CC;jumpStyle=arc;exitX=0;exitY=0.692;exitDx=0;exitDy=0;exitPerimeter=0;" parent="1" source="dmKb26-EE7EQQu3DMDBA-128" edge="1">
          <mxGeometry relative="1" as="geometry">
            <mxPoint x="1170" y="230" as="sourcePoint" />
            <mxPoint x="1110" y="230" as="targetPoint" />
            <Array as="points" />
          </mxGeometry>
        </mxCell>
        <mxCell id="dmKb26-EE7EQQu3DMDBA-130" style="edgeStyle=orthogonalEdgeStyle;rounded=0;orthogonalLoop=1;jettySize=auto;html=1;entryX=0.5;entryY=0;entryDx=0;entryDy=0;" parent="1" source="dmKb26-EE7EQQu3DMDBA-114" target="dmKb26-EE7EQQu3DMDBA-119" edge="1">
          <mxGeometry relative="1" as="geometry">
            <Array as="points">
              <mxPoint x="1140" y="220" />
              <mxPoint x="1140" y="30" />
              <mxPoint x="1300" y="30" />
            </Array>
          </mxGeometry>
        </mxCell>
        <mxCell id="dmKb26-EE7EQQu3DMDBA-131" style="edgeStyle=orthogonalEdgeStyle;rounded=0;orthogonalLoop=1;jettySize=auto;html=1;entryX=0.998;entryY=0.139;entryDx=0;entryDy=0;entryPerimeter=0;fillColor=#6a00ff;strokeColor=#3700CC;jumpStyle=arc;" parent="1" source="dmKb26-EE7EQQu3DMDBA-114" target="dmKb26-EE7EQQu3DMDBA-101" edge="1">
          <mxGeometry relative="1" as="geometry">
            <Array as="points">
              <mxPoint x="840" y="225" />
              <mxPoint x="840" y="112" />
            </Array>
          </mxGeometry>
        </mxCell>
        <mxCell id="dmKb26-EE7EQQu3DMDBA-132" value="NULL" style="html=1;whiteSpace=wrap;" parent="1" vertex="1">
          <mxGeometry x="1476" y="536" width="70" height="20" as="geometry" />
        </mxCell>
        <mxCell id="dmKb26-EE7EQQu3DMDBA-133" style="edgeStyle=orthogonalEdgeStyle;rounded=0;orthogonalLoop=1;jettySize=auto;html=1;entryX=0;entryY=0.5;entryDx=0;entryDy=0;" parent="1" source="dmKb26-EE7EQQu3DMDBA-89" target="dmKb26-EE7EQQu3DMDBA-132" edge="1">
          <mxGeometry relative="1" as="geometry" />
        </mxCell>
        <mxCell id="dmKb26-EE7EQQu3DMDBA-134" style="edgeStyle=orthogonalEdgeStyle;rounded=0;orthogonalLoop=1;jettySize=auto;html=1;entryX=0;entryY=0.5;entryDx=0;entryDy=0;" parent="1" source="dmKb26-EE7EQQu3DMDBA-87" target="dmKb26-EE7EQQu3DMDBA-132" edge="1">
          <mxGeometry relative="1" as="geometry" />
        </mxCell>
        <mxCell id="dmKb26-EE7EQQu3DMDBA-68" style="edgeStyle=orthogonalEdgeStyle;rounded=0;orthogonalLoop=1;jettySize=auto;html=1;fillColor=#6a00ff;strokeColor=#3700CC;jumpStyle=arc;" parent="1" source="dmKb26-EE7EQQu3DMDBA-51" target="dmKb26-EE7EQQu3DMDBA-88" edge="1">
          <mxGeometry relative="1" as="geometry">
            <mxPoint x="1520" y="589" as="targetPoint" />
            <Array as="points">
              <mxPoint x="560" y="503" />
              <mxPoint x="560" y="770" />
              <mxPoint x="1480" y="770" />
              <mxPoint x="1480" y="600" />
            </Array>
          </mxGeometry>
        </mxCell>
        <mxCell id="dmKb26-EE7EQQu3DMDBA-135" value="NULL" style="html=1;whiteSpace=wrap;" parent="1" vertex="1">
          <mxGeometry x="1476" y="209" width="70" height="20" as="geometry" />
        </mxCell>
        <mxCell id="dmKb26-EE7EQQu3DMDBA-136" style="edgeStyle=orthogonalEdgeStyle;rounded=0;orthogonalLoop=1;jettySize=auto;html=1;entryX=0;entryY=0.5;entryDx=0;entryDy=0;" parent="1" source="dmKb26-EE7EQQu3DMDBA-128" target="dmKb26-EE7EQQu3DMDBA-135" edge="1">
          <mxGeometry relative="1" as="geometry">
            <Array as="points">
              <mxPoint x="1410" y="219" />
              <mxPoint x="1410" y="219" />
            </Array>
          </mxGeometry>
        </mxCell>
        <mxCell id="dmKb26-EE7EQQu3DMDBA-137" style="edgeStyle=orthogonalEdgeStyle;rounded=0;orthogonalLoop=1;jettySize=auto;html=1;entryX=1.004;entryY=0.709;entryDx=0;entryDy=0;entryPerimeter=0;fillColor=#6a00ff;strokeColor=#3700CC;jumpStyle=arc;" parent="1" source="dmKb26-EE7EQQu3DMDBA-104" target="dmKb26-EE7EQQu3DMDBA-128" edge="1">
          <mxGeometry relative="1" as="geometry">
            <Array as="points">
              <mxPoint x="560" y="173" />
              <mxPoint x="560" y="280" />
              <mxPoint x="1440" y="280" />
              <mxPoint x="1440" y="230" />
            </Array>
          </mxGeometry>
        </mxCell>
        <mxCell id="dmKb26-EE7EQQu3DMDBA-138" value="" style="endArrow=none;dashed=1;html=1;rounded=0;" parent="1" edge="1">
          <mxGeometry width="50" height="50" relative="1" as="geometry">
            <mxPoint x="170" y="320" as="sourcePoint" />
            <mxPoint x="1590" y="320" as="targetPoint" />
          </mxGeometry>
        </mxCell>
        <mxCell id="dmKb26-EE7EQQu3DMDBA-139" value="&lt;div style=&quot;background-color: rgb(255, 255, 255); font-family: &amp;quot;Droid Sans Mono&amp;quot;, &amp;quot;monospace&amp;quot;, monospace; font-size: 14px; line-height: 19px;&quot;&gt;QemuOptsList *vm_config_groups[&lt;span style=&quot;color: #098658;&quot;&gt;48&lt;/span&gt;];&lt;/div&gt;" style="html=1;whiteSpace=wrap;" parent="1" vertex="1">
          <mxGeometry x="30" y="50" width="220" height="50" as="geometry" />
        </mxCell>
        <mxCell id="dmKb26-EE7EQQu3DMDBA-140" style="edgeStyle=orthogonalEdgeStyle;rounded=0;orthogonalLoop=1;jettySize=auto;html=1;entryX=-0.01;entryY=0.133;entryDx=0;entryDy=0;entryPerimeter=0;shape=flexArrow;width=7.692307692307692;endSize=5.257692307692308;" parent="1" source="dmKb26-EE7EQQu3DMDBA-139" target="dmKb26-EE7EQQu3DMDBA-1" edge="1">
          <mxGeometry relative="1" as="geometry" />
        </mxCell>
        <mxCell id="dmKb26-EE7EQQu3DMDBA-141" value="QemuOpts details with internal QTAILQ" style="text;html=1;align=left;verticalAlign=middle;resizable=0;points=[];autosize=1;strokeColor=none;fillColor=none;" parent="1" vertex="1">
          <mxGeometry x="170" y="330" width="230" height="30" as="geometry" />
        </mxCell>
        <mxCell id="dmKb26-EE7EQQu3DMDBA-142" value="QemuOptsList details without internal QTAILQ" style="text;html=1;align=left;verticalAlign=middle;resizable=0;points=[];autosize=1;strokeColor=none;fillColor=none;" parent="1" vertex="1">
          <mxGeometry x="170" y="280" width="270" height="30" as="geometry" />
        </mxCell>
        <mxCell id="Tl9XhdTrTpEzL3gm2f5e-1" value="QTAILQ_HEAD or QTAILQ_ENTRY" style="swimlane;fontStyle=1;align=center;verticalAlign=top;childLayout=stackLayout;horizontal=1;startSize=26;horizontalStack=0;resizeParent=1;resizeParentMax=0;resizeLast=0;collapsible=1;marginBottom=0;whiteSpace=wrap;html=1;fillColor=#dae8fc;strokeColor=#6c8ebf;" parent="1" vertex="1">
          <mxGeometry x="30" y="630" width="240" height="60" as="geometry">
            <mxRectangle x="70" y="60" width="160" height="30" as="alternateBounds" />
          </mxGeometry>
        </mxCell>
        <mxCell id="Tl9XhdTrTpEzL3gm2f5e-2" value="QTailQLink&amp;nbsp;tqh_circ" style="swimlane;fontStyle=1;align=center;verticalAlign=top;childLayout=stackLayout;horizontal=1;startSize=26;horizontalStack=0;resizeParent=1;resizeParentMax=0;resizeLast=0;collapsible=1;marginBottom=0;whiteSpace=wrap;html=1;fillColor=#e1d5e7;strokeColor=#9673a6;" parent="Tl9XhdTrTpEzL3gm2f5e-1" vertex="1">
          <mxGeometry y="26" width="240" height="34" as="geometry" />
        </mxCell>
        <mxCell id="Tl9XhdTrTpEzL3gm2f5e-3" value="" style="line;strokeWidth=1;fillColor=none;align=left;verticalAlign=middle;spacingTop=-1;spacingLeft=3;spacingRight=3;rotatable=0;labelPosition=right;points=[];portConstraint=eastwest;strokeColor=inherit;" parent="Tl9XhdTrTpEzL3gm2f5e-2" vertex="1">
          <mxGeometry y="26" width="240" height="8" as="geometry" />
        </mxCell>
        <mxCell id="Tl9XhdTrTpEzL3gm2f5e-4" value="Normal struct" style="swimlane;fontStyle=1;align=center;verticalAlign=top;childLayout=stackLayout;horizontal=1;startSize=26;horizontalStack=0;resizeParent=1;resizeParentMax=0;resizeLast=0;collapsible=1;marginBottom=0;whiteSpace=wrap;html=1;fillColor=#ffe6cc;strokeColor=#d79b00;" parent="1" vertex="1">
          <mxGeometry x="30" y="710" width="240" height="60" as="geometry" />
        </mxCell>
        <mxCell id="Tl9XhdTrTpEzL3gm2f5e-5" value="" style="line;strokeWidth=1;fillColor=none;align=left;verticalAlign=middle;spacingTop=-1;spacingLeft=3;spacingRight=3;rotatable=0;labelPosition=right;points=[];portConstraint=eastwest;strokeColor=inherit;" parent="Tl9XhdTrTpEzL3gm2f5e-4" vertex="1">
          <mxGeometry y="26" width="240" height="8" as="geometry" />
        </mxCell>
        <mxCell id="Tl9XhdTrTpEzL3gm2f5e-6" value="Other data structs" style="text;strokeColor=none;fillColor=none;align=center;verticalAlign=top;spacingLeft=4;spacingRight=4;overflow=hidden;rotatable=0;points=[[0,0.5],[1,0.5]];portConstraint=eastwest;whiteSpace=wrap;html=1;" parent="Tl9XhdTrTpEzL3gm2f5e-4" vertex="1">
          <mxGeometry y="34" width="240" height="26" as="geometry" />
        </mxCell>
      </root>
    </mxGraphModel>
  </diagram>
</mxfile>
